<svg width="30" height="38" viewBox="0 0 30 38" fill="none" xmlns="http://www.w3.org/2000/svg">
<path d="M23.2473 28.4927C22.0773 28.4927 20.9793 27.9303 20.1513 26.8954L15.6873 21.3161C15.3813 20.9336 14.8233 20.9336 14.5173 21.3161L10.0353 26.9179C9.20732 27.9528 8.10932 28.5152 6.93932 28.5152H6.05731L11.7273 35.6018C13.4913 37.8065 16.3713 37.8065 18.1353 35.6018L23.8233 28.4927H23.2473Z" fill="#32BCAD"/>
<path d="M6.9213 8.74016C8.0913 8.74016 9.1893 9.30259 10.0173 10.3375L14.4993 15.9393C14.8233 16.3442 15.3453 16.3442 15.6693 15.9393L20.1513 10.36C20.9793 9.32508 22.0773 8.76265 23.2473 8.76265H23.7873L18.0993 1.65354C16.3353 -0.551181 13.4553 -0.551181 11.6913 1.65354L6.0213 8.74016H6.9213Z" fill="#32BCAD"/>
<path d="M28.485 14.6344L25.047 10.3375C24.975 10.3824 24.885 10.4049 24.795 10.4049H23.229C22.419 10.4049 21.627 10.8099 21.069 11.5298L16.605 17.1091C16.191 17.6265 15.633 17.8965 15.093 17.8965C14.535 17.8965 13.995 17.6265 13.581 17.1091L9.099 11.5073C8.523 10.7874 7.731 10.3824 6.939 10.3824H5.013C4.923 10.3824 4.851 10.36 4.779 10.315L1.323 14.6344C-0.441 16.8391 -0.441 20.4387 1.323 22.6434L4.761 26.9404C4.833 26.8954 4.905 26.8729 4.995 26.8729H6.921C7.731 26.8729 8.523 26.4679 9.081 25.748L13.563 20.1462C14.373 19.1339 15.795 19.1339 16.605 20.1462L21.069 25.7255C21.645 26.4454 22.437 26.8504 23.229 26.8504H24.795C24.885 26.8504 24.957 26.8729 25.047 26.9179L28.485 22.6209C30.249 20.4162 30.249 16.8391 28.485 14.6344Z" fill="#32BCAD"/>
</svg>
