<svg width="80" height="40" viewBox="0 0 80 40" fill="none" xmlns="http://www.w3.org/2000/svg">
<g clip-path="url(#clip0_15_1109)">
<path d="M33.025 37.3433V14.3962C33.025 10.1667 35.457 6.74713 38.465 6.74713H43.281C46.273 6.74713 48.689 10.1667 48.689 14.3737V19.2556C48.689 23.485 46.257 26.9046 43.249 26.9046H36.449" stroke="#939598" stroke-width="2.9764" stroke-miterlimit="10" stroke-linecap="round" stroke-linejoin="round"/>
<path d="M50.033 6.76962H52.129C53.361 6.76962 54.353 8.16445 54.353 9.89673V27.0396" stroke="#939598" stroke-width="2.9764" stroke-miterlimit="10" stroke-linecap="round" stroke-linejoin="round"/>
<path d="M53.9049 4.11496L52.9609 2.78763C52.7209 2.45017 52.7209 1.91023 52.9609 1.59527L53.9049 0.26794C54.1449 -0.0695177 54.5289 -0.0695177 54.7529 0.26794L55.697 1.59527C55.937 1.93273 55.937 2.47266 55.697 2.78763L54.7529 4.11496C54.5129 4.42992 54.1289 4.42992 53.9049 4.11496Z" fill="#32BCAD"/>
<path d="M58.353 6.74713H60.417C61.489 6.74713 62.497 7.33206 63.265 8.41192L68.113 15.2286C68.737 16.106 69.761 16.106 70.385 15.2286L75.217 8.43442C75.969 7.37705 76.993 6.76963 78.065 6.76963H79.745" stroke="#939598" stroke-width="2.9764" stroke-miterlimit="10" stroke-linecap="round" stroke-linejoin="round"/>
<path d="M58.353 26.8821H60.417C61.489 26.8821 62.497 26.2972 63.265 25.2173L68.113 18.4007C68.737 17.5233 69.761 17.5233 70.385 18.4007L75.217 25.1948C75.969 26.2522 76.993 26.8596 78.065 26.8596H79.745" stroke="#939598" stroke-width="2.9764" stroke-miterlimit="10" stroke-linecap="round" stroke-linejoin="round"/>
<path d="M20.6729 31.2241C19.6329 31.2241 18.6569 30.6616 17.9209 29.6268L13.9529 24.0475C13.6809 23.665 13.1849 23.665 12.9129 24.0475L8.92895 29.6493C8.19295 30.6841 7.21695 31.2466 6.17695 31.2466H5.39294L10.4329 38.3332C12.0009 40.5379 14.561 40.5379 16.129 38.3332L21.1849 31.2241H20.6729Z" fill="#32BCAD"/>
<path d="M6.16096 11.4715C7.20096 11.4715 8.17696 12.034 8.91296 13.0688L12.897 18.6706C13.185 19.0756 13.649 19.0756 13.937 18.6706L17.921 13.0913C18.657 12.0565 19.633 11.494 20.673 11.494H21.153L16.097 4.38493C14.529 2.1802 11.969 2.1802 10.401 4.38493L5.36096 11.4715H6.16096Z" fill="#32BCAD"/>
<path d="M25.3288 17.3658L22.2728 13.0688C22.2088 13.1138 22.1288 13.1363 22.0488 13.1363H20.6568C19.9368 13.1363 19.2328 13.5413 18.7368 14.2612L14.7688 19.8405C14.4008 20.3579 13.9048 20.6279 13.4248 20.6279C12.9288 20.6279 12.4488 20.3579 12.0808 19.8405L8.09679 14.2387C7.58479 13.5188 6.88079 13.1138 6.17679 13.1138H4.46479C4.38479 13.1138 4.32079 13.0913 4.25679 13.0463L1.18479 17.3658C-0.383211 19.5705 -0.383211 23.1701 1.18479 25.3748L4.24079 29.6718C4.30479 29.6268 4.36879 29.6043 4.44879 29.6043H6.16079C6.88079 29.6043 7.58479 29.1993 8.08079 28.4794L12.0648 22.8776C12.7848 21.8652 14.0488 21.8652 14.7688 22.8776L18.7368 28.4569C19.2488 29.1768 19.9528 29.5818 20.6568 29.5818H22.0488C22.1288 29.5818 22.1928 29.6043 22.2728 29.6493L25.3288 25.3523C26.8968 23.1476 26.8968 19.5705 25.3288 17.3658Z" fill="#32BCAD"/>
</g>
<defs>
<clipPath id="clip0_15_1109">
<rect width="80" height="40" fill="white"/>
</clipPath>
</defs>
</svg>
